<svg height="480pt" viewBox="0 0 480.00048 480" width="480pt" xmlns="http://www.w3.org/2000/svg" xmlns:xlink="http://www.w3.org/1999/xlink"><linearGradient id="a"><stop offset="0" stop-color="#e93e3a"/><stop offset=".35" stop-color="#ed683c"/><stop offset=".7" stop-color="#f3903f"/><stop offset="1" stop-color="#fdc70c"/></linearGradient><linearGradient id="b" gradientUnits="userSpaceOnUse" x1="184" x2="184" xlink:href="#a" y1="495.69624" y2="-18.83976"/><linearGradient id="c" gradientUnits="userSpaceOnUse" x1="128" x2="128" xlink:href="#a" y1="495.69624" y2="-18.83976"/><linearGradient id="d" gradientUnits="userSpaceOnUse" x1="248" x2="248" xlink:href="#a" y1="495.69624" y2="-18.83976"/><linearGradient id="e" gradientUnits="userSpaceOnUse" x1="296" x2="296" xlink:href="#a" y1="495.69624" y2="-18.83976"/><linearGradient id="f" gradientUnits="userSpaceOnUse" x1="280" x2="280" xlink:href="#a" y1="495.69624" y2="-18.83976"/><linearGradient id="g" gradientUnits="userSpaceOnUse" x1="80" x2="80" xlink:href="#a" y1="495.69624" y2="-18.83976"/><linearGradient id="h" gradientUnits="userSpaceOnUse" x1="224" x2="224" xlink:href="#a" y1="495.69624" y2="-18.83976"/><linearGradient id="i" gradientUnits="userSpaceOnUse" x1="104" x2="104" xlink:href="#a" y1="495.69624" y2="-18.83976"/><linearGradient id="j" gradientUnits="userSpaceOnUse" x1="192" x2="192" xlink:href="#a" y1="495.69624" y2="-18.83976"/><linearGradient id="k" gradientUnits="userSpaceOnUse" x1="272" x2="272" xlink:href="#a" y1="495.69624" y2="-18.83976"/><linearGradient id="l" gradientUnits="userSpaceOnUse" x1="432" x2="432" xlink:href="#a" y1="495.69624" y2="-18.83976"/><path d="m367.488281 117.441406c-.089843-.257812-.152343-.503906-.265625-.753906-.386718-.871094-.929687-1.664062-1.597656-2.34375l-112-112c-.679688-.671875-1.480469-1.214844-2.351562-1.597656-.242188-.105469-.472657-.167969-.722657-.257813-.835937-.222656-1.6875-.386719-2.550781-.488281h-208c-22.082031.0273438-39.9726562 17.917969-40 40v400c.0273438 22.082031 17.917969 39.972656 40 40h288c22.082031-.027344 39.972656-17.917969 40-40v-320c-.105469-.863281-.277344-1.722656-.511719-2.558594zm-26.800781-5.441406h-60.6875c-13.253906 0-24-10.746094-24-24v-60.6875zm-12.6875 352h-288c-13.253906 0-24-10.746094-24-24v-400c0-13.253906 10.746094-24 24-24h200v72c.027344 22.082031 17.917969 39.972656 40 40h72v312c0 13.253906-10.746094 24-24 24zm0 0" fill="url(#b)"/><path d="m128 208c44.183594 0 80-35.816406 80-80s-35.816406-80-80-80-80 35.816406-80 80c.046875 44.164062 35.835938 79.953125 80 80zm-32-24.65625v-7.34375c0-17.671875 14.328125-32 32-32s32 14.328125 32 32v7.34375c-19.773438 11.542969-44.226562 11.542969-64 0zm16-71.34375c0-8.835938 7.164062-16 16-16s16 7.164062 16 16-7.164062 16-16 16-16-7.164062-16-16zm16-48c25.234375-.046875 48.132812 14.765625 58.4375 37.800781 10.300781 23.035157 6.082031 49.980469-10.773438 68.757813-1.65625-15.472656-10.796874-29.152344-24.464843-36.597656 12.066406-12.644532 11.753906-32.632813-.703125-44.894532-12.453125-12.261718-32.441406-12.261718-44.898438 0-12.453125 12.261719-12.765625 32.25-.703125 44.894532-13.605469 7.507812-22.746093 21.136718-24.527343 36.574218-16.828126-18.777344-21.035157-45.699218-10.742188-68.71875 10.289062-23.019531 33.160156-37.832031 58.375-37.816406zm0 0" fill="url(#c)"/><path d="m240 152h16v16h-16zm0 0" fill="url(#d)"/><path d="m272 152h48v16h-48zm0 0" fill="url(#e)"/><path d="m240 184h80v16h-80zm0 0" fill="url(#f)"/><path d="m48 240h64v16h-64zm0 0" fill="url(#g)"/><path d="m128 240h192v16h-192zm0 0" fill="url(#h)"/><path d="m48 280h272v16h-272zm0 0" fill="url(#b)"/><path d="m48 320h112v16h-112zm0 0" fill="url(#i)"/><path d="m176 320h32v16h-32zm0 0" fill="url(#j)"/><g fill="url(#k)"><path d="m224 320h96v16h-96zm0 0"/><path d="m288 368c-8.070312.503906-15.652344 4.054688-21.207031 9.929688-4.394531 3.757812-7.265625 6.070312-10.792969 6.070312-2.632812.261719-5.25-.609375-7.199219-2.398438-4.710937-3.890624-10.699219-5.886718-16.800781-5.601562v16c2.632812-.261719 5.25.613281 7.199219 2.398438 4.710937 3.890624 10.699219 5.886718 16.800781 5.601562 8.070312-.503906 15.652344-4.050781 21.207031-9.929688 4.394531-3.757812 7.265625-6.070312 10.792969-6.070312 2.632812-.261719 5.25.613281 7.199219 2.398438 4.710937 3.890624 10.699219 5.886718 16.800781 5.601562v-16c-2.632812.261719-5.25-.609375-7.199219-2.398438-4.710937-3.890624-10.699219-5.886718-16.800781-5.601562zm0 0"/><path d="m232 416h80v16h-80zm0 0"/></g><path d="m440 56h-16c-22.082031.027344-39.972656 17.917969-40 40v256c-.011719 1.238281.261719 2.460938.800781 3.578125l23.199219 46.308594v30.113281c0 13.253906 10.746094 24 24 24s24-10.746094 24-24v-30.113281l23.199219-46.308594c.539062-1.117187.8125-2.339844.800781-3.578125v-256c-.027344-22.082031-17.917969-39.972656-40-40zm3.054688 336h-22.109376l-17.90625-35.800781 28.960938-11.582031 28.960938 11.582031zm20.945312-240h-64v-16h64zm-64 16h24v162.585938l-24 9.597656zm40 162.585938v-162.585938h24v172.183594zm-40-234.585938c0-13.253906 10.746094-24 24-24h16c13.253906 0 24 10.746094 24 24v24h-64zm40 336c0 4.417969-3.582031 8-8 8s-8-3.582031-8-8v-24h16zm0 0" fill="url(#l)"/></svg>